<svg id="Capa_1" data-name="Capa 1" xmlns="http://www.w3.org/2000/svg" viewBox="0 0 250 250"><defs><style>.cls-1{fill:#fff;}</style></defs><title>icon</title><path class="cls-1" d="M225.2,120.14c-2-2.91-5.14-3.42-8.42-2.16a38.09,38.09,0,0,0-4,2c-6.74,3.57-13.48,4.22-20.3.15-3.45-2.06-3.72-5.56-3.27-8.7.52-3.53,4-2,6.2-2.11,1.76-.1,3.56.68,5.36.79,2.44.14,4.84-.42,5.69-3,.75-2.27.62-4.63-1.52-6.35-2.3-1.86-4.54-1.6-6.77.16a50.67,50.67,0,0,1-5.93,4.48c-1.42.8-3.72,2.17-4.79-.08-1.57-3.33-3.64-6.8-1.17-10.76,4.32-6.9,10.65-9.5,18.52-9.26,4.39.14,8-1.33,8.83-6.14.6-3.6.06-7.25-4.15-8.53-4.78-1.45-8,1-10.14,5A24.28,24.28,0,0,1,192.81,83c-7.18,5.82-13.19,5.18-19.05-1.66a46.19,46.19,0,0,0-5.29-5.27c-6.27-5.3-7.05-10.47-2.95-17.57,2.56-4.43,6.9-6.51,10.79-9.27,2.62-1.86,4.15-4.33,3.18-7.68-1-3.53-3.46-6-7.07-6-3.36-.07-5.77,2.06-7,5.35a12.32,12.32,0,0,0-.61,5.39c.41,7.35-3.17,12.51-8.69,16.86-3.38,2.66-6.57,1.88-9.6-.1s-2.52-4.88-1.78-8c.91-3.84,3.9-6.06,6-9,1.7-2.4,1.89-5.07-.13-7.35S146,36.85,143.64,38c-2.62,1.27-3.17,3.61-2.39,6.34.45,1.59.92,3.18,1.24,4.8.79,4.06-2.37,10.66-5.38,11.37-4.27,1-7-1.19-9-7.13-2.18-6.31-.65-12,2.5-17.58,2.71-4.79,2.1-9.53-1.41-11.42-3-1.62-6.25-1.72-8.91.47-2.93,2.4-2.88,5.78-1.58,9.11,1.71,4.42,5.15,8.28,4.23,13,0,9.6-2.53,12.57-11.21,14.34a47,47,0,0,0-9.49,2.83c-3.59,1.58-6.27.68-9.06-1.67C87.69,57.8,85.27,52,85.25,44.93c0-5.9-1.92-8.77-6.21-9.18-3.42-.32-6.27,1-7.61,4.36-1.59,3.93.16,7.68,4.45,10.32a28,28,0,0,1,6.66,5.12c6,6.83,6.29,15.07.26,20A36.55,36.55,0,0,0,75,83.66c-2.34,3.58-5.61,3.91-9.11,3.17a20,20,0,0,1-10.45-5.36c-2.49-2.51-4.06-5.64-6.16-8.38-1.95-2.54-4.66-3.81-7.91-2.48-2.92,1.2-5.18,3-5,6.61.12,3.44,1.32,6,4.9,7.23a17.52,17.52,0,0,0,6.36.81c6.76-.28,11.7,3.11,15.78,8,2.6,3.1,2.37,10.53-.74,12.68-3.41,2.37-5.54-1.55-8.18-2.79-1-.48-1.69-1.59-2.66-2.22a5.34,5.34,0,0,0-6.5.27,4.61,4.61,0,0,0-1.72,5.32c.74,2.56,2.46,3.91,5.19,3.63,2.29-.23,4.57-.6,6.86-.88,4.07-.5,5.82,1.25,5.6,5.39-.15,2.67-1.45,4.2-3.62,5.45-6.28,3.61-12.5,3.64-18.95.36-2.73-1.39-5.28-3.74-8.67-3.2-4.44.7-6.89,5.61-5.44,10.55,1,3.36,5.14,5.19,9,3.69,4.29-1.65,8.15-4.31,12.92-4.88,7.45-.9,13.37,3.2,14.94,10.46a58.79,58.79,0,0,0,3,10.46,7.73,7.73,0,0,1-.92,8.23c-4.63,6.63-11.24,8.89-18.88,8.93-3.78,0-7.16.69-8.08,4.93-.78,3.61-.3,7.06,3.74,8.73s8,.52,10.16-3.54c3.54-6.77,8.78-10.54,16.33-12.33,5.59-1.33,7.52,2.08,9.14,5.39s-1.15,5.9-3.83,7.63a26.72,26.72,0,0,1-6.75,3.06c-3,.93-5.21,2.44-5,5.82A5.29,5.29,0,0,0,65,189.53c3.34.51,5.29-1.57,6.19-4.53,1-3.21,2.12-6.37,4.6-8.66,1.72-1.59,3.85-3.76,6.46-2.26S87,177,87.15,180.83c.31,9.16-5.09,14.36-12,18.57-4.2,2.58-4.87,6.1-3.54,10.24,1.16,3.64,4.32,4.6,7.64,4,4.4-.84,6.29-4,6-8.38a23.35,23.35,0,0,1,2-10.63c3.29-8.09,9.37-10.94,17.51-8.28a74.07,74.07,0,0,0,8.11,2.3c7.27,1.5,9.74,4.52,10.06,11.88a25.45,25.45,0,0,1-4,14.58c-1.93,3.19-1.33,6.5,1.12,9.18a6.22,6.22,0,0,0,8.11,1.47c3.48-1.83,4.52-4.79,3.8-8.34a22.62,22.62,0,0,0-2.37-6c-3.53-6.59-3.1-13,.48-19.41a5.91,5.91,0,0,1,5-3.27,47.17,47.17,0,0,0,12-3c4.53-2,7.83-1,11.2,2.16,5.31,4.93,6.76,11.06,6.6,18-.11,4.41,2.42,7.24,6.86,7.68,4,.39,6.9-1.63,7.84-5.46,1.07-4.37-1.61-7.32-5.1-9.28a25.82,25.82,0,0,1-7-5.49c-6-6.89-5.79-13.51.44-19.8,3.15-3.17,6.2-6.45,9.2-9.77.95-1.05,1.91-1.89,3.36-1.73,6.8.72,12.95,2.76,17,8.77,1,1.5,2,3.06,2.88,4.63,2.3,3.94,6,4,9.61,3,3.94-1.19,4.06-4.81,3.75-8.27-.36-4-3.19-5.09-6.58-5.42-1.15-.11-2.32,0-3.48-.06-7.12-.19-12.64-3.42-17-8.94-2.87-3.67-2.06-7.64.57-10.46s5.3.57,7.72,1.89c1.13.62,1.9,1.85,3,2.63a5.86,5.86,0,0,0,7,.27c2.34-1.5,2.19-4,1.53-6.3-.79-2.74-3.19-3.14-5.64-2.92-1.81.16-3.58.67-5.38.85-5.76.6-7.63-1.71-6.14-7.33a8.42,8.42,0,0,1,5.33-6.05,20.55,20.55,0,0,1,19,1.52,23,23,0,0,0,2.58,1.49c3.43,1.41,6.46.95,8.93-2S227.21,123,225.2,120.14ZM87.93,140.79a9.51,9.51,0,0,1-9.61-9.71c0-5.4,4.41-10,9.57-9.85,4.86.13,9.71,5.1,9.82,10.09C97.81,135.61,92.6,140.66,87.93,140.79Zm21.89-46.17c-.22,3.91-2.75,5.38-6.4,5.32-3.8-.06-5.26-2.21-5.15-5.79.11-3.88,2.29-5.59,6-5.92C107.73,89,110,90.81,109.82,94.62Zm8.75,66.9c-3.63-.1-5.49-2.92-6-6.17-.43-2.7,3.8-6.29,6.92-6.14,3.27.75,5.44,2.88,5.22,6.5S122.19,161.63,118.57,161.52Zm16.31-62.58c-5.08-.28-9.74-4.87-9.66-9.5.08-4.89,5.32-10.14,9.95-10s9.65,5.39,9.57,9.82C144.65,94.8,140.12,99.24,134.88,98.94Zm22.49,28.49a7.19,7.19,0,0,1-5.76,6.37c-3.8-.43-6.17-2.35-6.38-5.94s1.83-6,5.42-6.49C153.5,121,157.73,124.7,157.37,127.43Z"/></svg>